<mxfile host="app.diagrams.net" modified="2024-02-25T01:28:22.753Z" agent="Mozilla/5.0 (Macintosh; Intel Mac OS X 10_15_7) AppleWebKit/537.36 (KHTML, like Gecko) Chrome/120.0.0.0 Safari/537.36" etag="3vwSzJKmPAGw76hFaBFa" version="22.1.18" type="github">
  <diagram id="9fnjXT7nlAm7Ix4f8WDv" name="Page-1">
    <mxGraphModel dx="857" dy="443" grid="0" gridSize="10" guides="1" tooltips="1" connect="1" arrows="1" fold="1" page="1" pageScale="1" pageWidth="700" pageHeight="250" background="#EFF1F3" math="0" shadow="0">
      <root>
        <mxCell id="0" />
        <mxCell id="1" parent="0" />
        <mxCell id="3zs3Am_Uh3rQ7c6fNL1m-41" value="" style="rounded=1;whiteSpace=wrap;html=1;fillColor=none;strokeWidth=3;strokeColor=#4A909B;dashed=1;" parent="1" vertex="1">
          <mxGeometry x="144.5" y="290" width="415" height="133.5" as="geometry" />
        </mxCell>
        <mxCell id="5zGb_LtoR-WvMu9iLxvD-1" value="&lt;font color=&quot;#4a909b&quot; style=&quot;font-size: 17px;&quot;&gt;公众号：小白debug&lt;/font&gt;" style="text;html=1;strokeColor=none;fillColor=none;align=center;verticalAlign=middle;whiteSpace=wrap;rounded=0;fontSize=16;" parent="1" vertex="1">
          <mxGeometry x="392" y="433" width="282" height="30" as="geometry" />
        </mxCell>
        <mxCell id="3zs3Am_Uh3rQ7c6fNL1m-14" value="&lt;font style=&quot;font-size: 28px;&quot;&gt;0&lt;/font&gt;" style="rounded=1;whiteSpace=wrap;html=1;fillColor=#F19C99;fontColor=#F8F8F8;strokeColor=default;" parent="1" vertex="1">
          <mxGeometry x="165.5" y="347" width="64" height="38" as="geometry" />
        </mxCell>
        <mxCell id="3zs3Am_Uh3rQ7c6fNL1m-19" value="&lt;font style=&quot;font-size: 17px;&quot;&gt;0&lt;/font&gt;" style="text;html=1;strokeColor=none;fillColor=none;align=center;verticalAlign=middle;whiteSpace=wrap;rounded=0;fontColor=#EA6B66;" parent="1" vertex="1">
          <mxGeometry x="167.5" y="389.25" width="60" height="30" as="geometry" />
        </mxCell>
        <mxCell id="3zs3Am_Uh3rQ7c6fNL1m-24" value="&lt;font style=&quot;font-size: 23px;&quot; color=&quot;#4a909b&quot;&gt;index:&lt;/font&gt;" style="text;html=1;strokeColor=none;fillColor=none;align=center;verticalAlign=middle;whiteSpace=wrap;rounded=0;" parent="1" vertex="1">
          <mxGeometry x="74" y="389.25" width="60" height="30" as="geometry" />
        </mxCell>
        <mxCell id="3zs3Am_Uh3rQ7c6fNL1m-25" value="&lt;font style=&quot;font-size: 28px;&quot;&gt;1&lt;/font&gt;" style="rounded=1;whiteSpace=wrap;html=1;fillColor=#6DB5A8;fontColor=#F8F8F8;strokeColor=default;" parent="1" vertex="1">
          <mxGeometry x="229.5" y="347" width="64" height="38" as="geometry" />
        </mxCell>
        <mxCell id="3zs3Am_Uh3rQ7c6fNL1m-26" value="&lt;font style=&quot;font-size: 17px;&quot;&gt;1&lt;/font&gt;" style="text;html=1;strokeColor=none;fillColor=none;align=center;verticalAlign=middle;whiteSpace=wrap;rounded=0;fontColor=#EA6B66;" parent="1" vertex="1">
          <mxGeometry x="231.5" y="389.25" width="60" height="30" as="geometry" />
        </mxCell>
        <mxCell id="3zs3Am_Uh3rQ7c6fNL1m-27" value="&lt;font style=&quot;font-size: 28px;&quot;&gt;0&lt;/font&gt;" style="rounded=1;whiteSpace=wrap;html=1;fillColor=#6DB5A8;fontColor=#F8F8F8;strokeColor=default;" parent="1" vertex="1">
          <mxGeometry x="293.5" y="347" width="64" height="38" as="geometry" />
        </mxCell>
        <mxCell id="3zs3Am_Uh3rQ7c6fNL1m-28" value="&lt;font style=&quot;font-size: 17px;&quot;&gt;2&lt;/font&gt;" style="text;html=1;strokeColor=none;fillColor=none;align=center;verticalAlign=middle;whiteSpace=wrap;rounded=0;fontColor=#EA6B66;" parent="1" vertex="1">
          <mxGeometry x="295.5" y="389.25" width="60" height="30" as="geometry" />
        </mxCell>
        <mxCell id="3zs3Am_Uh3rQ7c6fNL1m-29" value="&lt;font style=&quot;font-size: 28px;&quot;&gt;...&lt;/font&gt;" style="rounded=1;whiteSpace=wrap;html=1;fillColor=#6DB5A8;fontColor=#F8F8F8;strokeColor=default;" parent="1" vertex="1">
          <mxGeometry x="357.5" y="347" width="64" height="38" as="geometry" />
        </mxCell>
        <mxCell id="3zs3Am_Uh3rQ7c6fNL1m-30" value="&lt;font style=&quot;font-size: 17px;&quot;&gt;...&lt;/font&gt;" style="text;html=1;strokeColor=none;fillColor=none;align=center;verticalAlign=middle;whiteSpace=wrap;rounded=0;fontColor=#EA6B66;" parent="1" vertex="1">
          <mxGeometry x="359.5" y="389.25" width="60" height="30" as="geometry" />
        </mxCell>
        <mxCell id="3zs3Am_Uh3rQ7c6fNL1m-31" value="&lt;font style=&quot;font-size: 28px;&quot;&gt;0&lt;/font&gt;" style="rounded=1;whiteSpace=wrap;html=1;fillColor=#6DB5A8;fontColor=#F8F8F8;strokeColor=default;" parent="1" vertex="1">
          <mxGeometry x="421.5" y="347" width="64" height="38" as="geometry" />
        </mxCell>
        <mxCell id="3zs3Am_Uh3rQ7c6fNL1m-32" value="&lt;font style=&quot;font-size: 17px;&quot;&gt;len-2&lt;/font&gt;" style="text;html=1;strokeColor=none;fillColor=none;align=center;verticalAlign=middle;whiteSpace=wrap;rounded=0;fontColor=#EA6B66;" parent="1" vertex="1">
          <mxGeometry x="423.5" y="389.25" width="60" height="30" as="geometry" />
        </mxCell>
        <mxCell id="3zs3Am_Uh3rQ7c6fNL1m-33" value="&lt;font style=&quot;font-size: 28px;&quot;&gt;0&lt;/font&gt;" style="rounded=1;whiteSpace=wrap;html=1;fillColor=#6DB5A8;fontColor=#F8F8F8;strokeColor=default;" parent="1" vertex="1">
          <mxGeometry x="485.5" y="347" width="64" height="38" as="geometry" />
        </mxCell>
        <mxCell id="3zs3Am_Uh3rQ7c6fNL1m-34" value="&lt;font style=&quot;font-size: 17px;&quot;&gt;len-1&lt;/font&gt;" style="text;html=1;strokeColor=none;fillColor=none;align=center;verticalAlign=middle;whiteSpace=wrap;rounded=0;fontColor=#EA6B66;" parent="1" vertex="1">
          <mxGeometry x="487.5" y="389.25" width="60" height="30" as="geometry" />
        </mxCell>
        <mxCell id="3zs3Am_Uh3rQ7c6fNL1m-38" value="" style="shape=curlyBracket;whiteSpace=wrap;html=1;rounded=1;labelPosition=left;verticalLabelPosition=middle;align=right;verticalAlign=middle;rotation=90;strokeWidth=3;strokeColor=#F19C99;" parent="1" vertex="1">
          <mxGeometry x="189.5" y="302" width="20" height="62" as="geometry" />
        </mxCell>
        <mxCell id="3zs3Am_Uh3rQ7c6fNL1m-39" value="" style="rounded=1;whiteSpace=wrap;html=1;fillColor=#6DB5A8;fontColor=#F8F8F8;strokeColor=none;arcSize=30;" parent="1" vertex="1">
          <mxGeometry x="357.5" y="347.5" width="16" height="37" as="geometry" />
        </mxCell>
        <mxCell id="3zs3Am_Uh3rQ7c6fNL1m-40" value="&lt;font color=&quot;#f19c99&quot; style=&quot;font-size: 20px;&quot;&gt;不使用&lt;/font&gt;" style="text;html=1;strokeColor=none;fillColor=none;align=center;verticalAlign=middle;whiteSpace=wrap;rounded=0;" parent="1" vertex="1">
          <mxGeometry x="150" y="294" width="99" height="30" as="geometry" />
        </mxCell>
        <mxCell id="3zs3Am_Uh3rQ7c6fNL1m-42" value="&lt;font color=&quot;#4a909b&quot;&gt;&lt;span style=&quot;font-size: 27px;&quot;&gt;ringbuf&lt;/span&gt;&lt;/font&gt;" style="text;html=1;strokeColor=none;fillColor=none;align=center;verticalAlign=middle;whiteSpace=wrap;rounded=0;" parent="1" vertex="1">
          <mxGeometry x="322" y="430" width="60" height="30" as="geometry" />
        </mxCell>
      </root>
    </mxGraphModel>
  </diagram>
</mxfile>
